# xmcd
#
# Track frame offsets:
# 150
# 12075
# 26525
# 40220
# 50060
# 60752
# 72930
# 85900
# 99165
# 111302
# 123747
# 134652
#
# Disc length: 1941 seconds
#
#
# Revision: 0
# Processed by: cddbd v1.5PL3 Copyright (c) Steve Scherf et al.
# Submitted via: FreeRIP 2.00 
#
DISCID=9f07930c
DTITLE=George Jones And Tammy Wynette - 36 All Time Greatest Hits Disk 2
DYEAR=2002
DGENRE=Country
TTITLE0=God's Gonna Get'cha (For That)
TTITLE1=Those Were The Good Times
TTITLE2=Golden Ring
TTITLE3=We're Putting It Back Together
TTITLE4=Near You
TTITLE5=Tattletale Eyes
TTITLE6=Southern California
TTITLE7=Keep The Change
TTITLE8=Two Story House
TTITLE9=It Sure Was Good
TTITLE10=A Pair Of Old Sneakers
TTITLE11=We'll Talk About It Later
EXTD=Entered By Itaot...
EXTT0=
EXTT1=
EXTT2=
EXTT3=
EXTT4=
EXTT5=
EXTT6=
EXTT7=
EXTT8=
EXTT9=
EXTT10=
EXTT11=
PLAYORDER=
